<svg xmlns="http://www.w3.org/2000/svg" width="224" height="46" viewBox="0 0 224 46" fill="none"><path d="M207.807 33.4043L223.237 0.116239L217.803 0L202.285 33.4479L207.807 33.4043Z" fill="#46BF7E"></path><path d="M176.204 41.1925L179.11 45.5515C183.501 42.9721 187.007 39.1218 189.165 34.5088L204.014 2.77539L198.58 2.93522L185.503 30.6874C183.489 35.0241 180.272 38.6907 176.233 41.2506" fill="#46BF7E"></path><path d="M184.632 4.98438L179.154 5.04249L168.692 27.7673H173.952L184.632 4.98438Z" fill="#46BF7E"></path><path d="M150.734 30.7837H140.243C135.724 30.7837 133.08 28.0811 132.411 23.7221C131.641 18.6076 133.864 13.8854 139.793 13.8854C141.277 13.7474 142.773 13.9718 144.152 14.5392L145.823 11.7059C143.553 10.8411 141.146 10.3885 138.717 10.3691C130.159 10.3691 126.629 16.864 127.718 23.9837C128.038 26.6159 129.194 29.0759 131.017 31.0016H113.813L114.293 11.6768H110.035L109.89 15.9341C109.103 14.4539 107.923 13.2193 106.48 12.3657C105.036 11.5122 103.386 11.0728 101.71 11.0956C95.3747 11.0956 90.8268 16.4717 92.0473 24.3905C93.0499 30.9871 97.3653 34.5615 102.218 34.5615C105.299 34.5615 109.948 34.4016 109.948 34.4016L109.788 36.1743C109.687 39.6324 106.33 40.4461 102.872 40.4461C99.9739 40.3162 97.1211 39.6769 94.4447 38.5572V42.2333C97.4962 43.372 100.72 43.9814 103.976 44.035C109.396 44.035 113.552 41.6375 113.711 35.7384V34.2854H140.65H148.874L150.734 30.7837ZM96.6388 24.2743C95.8251 18.9563 98.4259 14.6991 102.945 14.6991C106.563 14.6991 108.873 17.3144 109.483 21.3538C109.779 24.5753 109.891 27.811 109.817 31.0452C109.817 31.0452 105.168 31.0452 103.148 31.0452C99.69 30.929 97.3507 28.4298 96.6388 24.2743Z" fill="#002868"></path><path d="M83.6052 28.953L84.3753 2H77.9385L75.6719 5.61795H79.7112L79.0428 28.6334C79.0428 31.9752 80.4232 34.8522 84.7821 34.8522C85.9965 34.8449 87.2024 34.6489 88.3565 34.271V30.7547C87.505 31.0996 86.6008 31.2962 85.683 31.3359C84.2736 31.394 83.5907 30.653 83.6052 28.953Z" fill="#002868"></path><path d="M67.971 29.1138L68.3778 11.6779H68.1744L68.3052 11.5762H61.7813L59.965 15.1215H63.8009L63.5684 31.3369H26.3573C23.9017 31.3369 23.0445 29.5352 23.1462 26.9779L23.2479 23.0839C23.2072 20.0735 22.0002 17.1964 19.8809 15.0581C17.7616 12.9198 14.8953 11.6872 11.8855 11.6198H4.72223L2.29573 15.2958H11.0137C13.0331 15.3514 14.9536 16.1824 16.3767 17.6163C17.7997 19.0502 18.6161 20.9769 18.6564 22.9967V25.5249C18.4146 27.2464 17.5321 28.8131 16.1852 29.9122C14.8384 31.0112 13.1264 31.5615 11.3915 31.4531C9.21197 31.4531 2.47009 31.3369 2.47009 31.3369L0 34.9694H12.3504C15.1589 35.1103 17.9099 34.1394 20.0077 32.2668C20.626 33.1317 21.448 33.8308 22.4009 34.3022C23.3538 34.7736 24.4083 35.0028 25.471 34.9694H64.2949C64.2949 34.9694 65.8787 34.9694 69.1189 34.9694C70.3334 34.9635 71.5395 34.7674 72.6932 34.3882L72.7804 31.0899C71.9427 31.4302 71.0536 31.6267 70.1505 31.6711C68.5667 31.6129 67.9129 30.8138 67.971 29.1138Z" fill="#002868"></path><path d="M34.8719 26.3368V26.5983H43.8368C44.2292 26.5983 44.636 26.5983 45.0428 26.5983H49.1112L49.9539 23.9248H45.4351C42.4274 23.9248 40.5095 22.4718 40.03 19.8128C39.8672 19.1067 39.8623 18.3734 40.0155 17.6651C40.1687 16.9569 40.4763 16.2911 40.9163 15.7154C41.446 15.1634 42.0895 14.7332 42.802 14.4547C43.5146 14.1762 44.2792 14.056 45.0428 14.1026C46.2927 14.0668 47.5398 14.2387 48.7334 14.6111L49.0531 14.7274L49.736 12.3154H49.5471C47.8553 11.7768 46.0917 11.4976 44.3163 11.4872C43.0646 11.3962 41.8083 11.5836 40.6377 12.0358C39.467 12.488 38.4109 13.1938 37.5454 14.1026C36.8716 14.9257 36.3913 15.8897 36.1398 16.9232C35.8883 17.9568 35.8721 19.0337 36.0924 20.0744C36.3208 21.5241 36.973 22.8739 37.9668 23.9539H34.6539L34.7411 24.7094L34.1309 26.3077L34.8719 26.3368Z" fill="#002868"></path></svg>